<?xml version="1.0" encoding="utf-8"?>
<!-- Generator: Adobe Illustrator 16.0.4, SVG Export Plug-In . SVG Version: 6.00 Build 0)  -->
<svg version="1.2" baseProfile="tiny" id="Layer_1" xmlns="http://www.w3.org/2000/svg" xmlns:xlink="http://www.w3.org/1999/xlink"
	 x="0px" y="0px" width="116px" height="130px" viewBox="0 0 116 130" overflow="visible" xml:space="preserve">
<g>
	<path fill="#B6B8BB" d="M111.539,30.552L60.457,0.943c-1.531-0.885-3.956-0.885-5.487,0L3.754,30.552
		C2.223,31.437,1,33.608,1,35.376v59.222c0,1.769,1.264,3.939,2.795,4.824l51.25,29.609c1.531,0.884,4.041,0.884,5.571,0
		l50.921-29.609c1.533-0.885,2.463-3.056,2.463-4.824V35.376C114,33.608,113.071,31.437,111.539,30.552z M55.981,125.044
		L6.928,96.54c-1.02-0.593-1.854-2.042-1.854-3.222L5.07,36.844c0-1.179,0.832-2.632,1.849-3.229L55.992,4.841
		c1.017-0.597,1.849-0.033,1.849,1.146L57.838,69c-0.004,0-0.008,0-0.013,0l-0.012-36.997c0,0-4.589-0.072-7.738,0.532
		c-3.377,0.648-6.917,1.814-7.359,2.107c0,0-3.618-2.476-6.809-2.715c-5.883-0.442-10.487,0.752-11.695,2.238
		c-1.21,1.486,0.513,3.983,1.063,5.117c1.133,2.333,1.933,3.044,2.634,3.811c0.597,0.653,1.924,1.603,2.389,2.067
		c0.463,0.464,1.409,1.047,1.409,1.047s-0.837,3.645-4.105,6.569c-4.1,3.671-7.054,7.416-8.597,11.463
		c1.709-1.03,5.765-0.239,6.96,0.954c-4.505,2.259-6.528,6.62-6.824,11.124c1.979-1.773,6.688-2.161,8.938-0.659
		c-3.685,1.849-5.594,7.074-5.322,11.441c1.953-2.043,4.436-3.396,8.735-2.804c-1.363,1.638-1.501,4.921-0.683,8.922
		c2.638-3.093,5.368-4.094,7.46-3.911c-0.817,3.002,1.891,7.228,3.094,7.917c0.201-3.021,1.92-5.995,4.839-4.46
		c3.183,1.677,1.275,5.004,4.186,7.461c0.113-2.001,3.031-3.397,4.987-2.416c1.063,0.532,2.46,0.476,2.46,0.476L57.83,80.173
		c0.002,0.001,0.005,0.003,0.008,0.005l-0.002,43.799C57.835,125.155,57,125.636,55.981,125.044z M58,74.27
		c-1-0.429-0.845-1.025-1.221-1.318c-0.624-0.482-1.98-0.872-2.992-1.45c-1.078-0.615-2.557-1.765-2.785-2.111
		c-0.065-0.098-0.194-0.238-0.194-0.341c0-0.271,0.369-0.414,0.593-0.491c0.406-0.137,1.53-0.436,1.978-0.543
		c0.708-0.171,1.156-0.171,1.454-0.074c0.107,0.036,0.407,0.15,0.589,0.255c0.218,0.123,0.648,0.49,0.941,0.546
		C56.653,68.799,58,68.827,58,68.827V74.27z M51.6,58.472c-0.343,0.199-0.869-0.643-1.338-0.62c-0.467,0.023-0.869,0.31-1.237,0.517
		c-0.368,0.207-1.48,0.706-2.887,0.103c-2.213-0.952-4.014-3.837-4.014-3.837s2.741-1.564,5.835-0.871
		C51.054,54.457,51.994,58.244,51.6,58.472z M46.544,80.466c0.632,0.3,1.593,0.946,2.786,1.719c0.769,0.499,1.499,0.13,2.259-0.375
		c1.212-0.806,3.367-2.113,4.433-2.926c0.436-0.332,1.042-1.889,1.22-2.429C57.346,76.148,57,75.648,58,75.27v4.887
		c0,0-1.769,0.955-3.852,2.122c-1.491,0.836-3.4,1.837-3.869,1.837c-0.404,0-1.33-0.441-2.235-1.227
		c-1.457-1.267-2.342-2.218-2.342-2.218S45.812,80.449,46.544,80.466z M57.828,74.702c0.002-0.005,0.007-0.015,0.01-0.021v0.153
		c-0.002-0.005-0.008-0.015-0.01-0.02V74.702z M96.535,76.318c-1.979-1.773-6.688-2.161-8.94-0.659
		c3.688,1.849,5.597,7.074,5.324,11.441c-1.956-2.043-4.437-3.396-8.734-2.804c1.364,1.638,1.5,4.921,0.682,8.922
		c-2.64-3.093-5.369-4.094-7.462-3.911c0.819,3.002-1.891,7.228-3.094,7.917c-0.203-3.021-1.922-5.995-4.837-4.46
		c-3.182,1.677-1.274,5.004-4.188,7.461c-0.11-2.001-3.029-3.397-4.984-2.416c-1.063,0.532-2.46,0.476-2.46,0.476l0.006-18.103
		c0.234,0.135,1.785,1.021,3.702,2.096c1.493,0.836,3.362,1.825,3.83,1.825c0.406,0,1.307-0.443,2.211-1.228
		c1.457-1.265,2.179-2.216,2.179-2.216s-0.129-0.224-0.861-0.207c-0.634,0.3-1.59,0.946-2.779,1.72
		c-0.77,0.499-1.514-0.074-2.271-0.577c-1.212-0.807-3.219-1.899-4.283-2.712c-0.436-0.332-0.737-1.889-0.917-2.429
		C58.506,76.004,58,75.136,58,74.857V74.66c0-0.308,0.6-1.302,1.125-1.709c0.621-0.482,1.825-0.872,2.837-1.45
		c1.076-0.615,2.479-1.765,2.709-2.111c0.062-0.098,0.156-0.238,0.156-0.341c0-0.271-0.387-0.414-0.614-0.491
		c-0.406-0.137-1.538-0.436-1.987-0.543c-0.706-0.171-1.157-0.171-1.455-0.074c-0.106,0.036-0.409,0.15-0.592,0.255
		c-0.218,0.123-0.554,0.49-0.842,0.546c-0.281,0.055-0.97,0.084-1.486,0.085l0.012-36.909c0,0,4.589-0.028,7.736,0.574
		c3.379,0.649,6.919,1.836,7.361,2.129c0,0,3.618-2.464,6.809-2.704c5.881-0.442,10.487,0.757,11.695,2.243
		s-0.515,3.985-1.063,5.119c-1.134,2.333-1.933,3.046-2.634,3.812c-0.597,0.653-1.924,1.604-2.39,2.068
		c-0.462,0.464-1.409,1.047-1.409,1.047s0.839,3.645,4.106,6.569c4.1,3.671,7.054,7.417,8.597,11.464
		c-1.709-1.03-5.764-0.239-6.959,0.954C94.217,67.453,96.239,71.814,96.535,76.318z"/>
	<path fill="#B6B8BB" d="M67.69,53.763c-3.097,0.693-4.035,4.48-3.642,4.708c0.342,0.199,0.869-0.643,1.338-0.62
		c0.468,0.023,0.867,0.31,1.235,0.517c0.369,0.207,1.48,0.706,2.887,0.103c2.216-0.952,4.015-3.837,4.015-3.837
		S70.782,53.07,67.69,53.763z"/>
</g>
</svg>
